<?xml version="1.0" standalone="no"?>
<!DOCTYPE svg PUBLIC "-//W3C//DTD SVG 20010904//EN"
 "http://www.w3.org/TR/2001/REC-SVG-20010904/DTD/svg10.dtd">
<svg version="1.0" xmlns="http://www.w3.org/2000/svg"
 width="512.000000pt" height="512.000000pt" viewBox="0 0 512.000000 512.000000"
 preserveAspectRatio="xMidYMid meet">

<g transform="translate(0.000000,512.000000) scale(0.100000,-0.100000)"
fill="#000000" stroke="none">
<path d="M900 5102 c-85 -22 -139 -55 -230 -140 l-75 -71 638 -638 638 -638
80 83 c103 108 130 160 149 285 12 81 -3 167 -45 256 -35 72 -54 93 -398 436
-389 388 -409 404 -534 430 -87 19 -142 18 -223 -3z"/>
<path d="M339 4597 c-329 -439 -423 -985 -258 -1490 57 -176 134 -322 253
-482 80 -109 2181 -2210 2291 -2292 209 -155 430 -253 687 -305 147 -29 424
-31 563 -4 279 54 493 149 718 320 l67 51 -634 634 -634 633 -67 -33 c-58 -28
-77 -33 -145 -33 -148 0 -116 -27 -871 731 -528 530 -671 678 -690 718 -20 41
-24 66 -24 140 0 83 3 95 33 150 l32 59 -632 633 c-348 348 -635 633 -638 633
-3 -1 -26 -29 -51 -63z"/>
<path d="M4000 2103 c-136 -17 -203 -51 -315 -155 l-77 -71 639 -639 638 -639
78 82 c90 96 131 172 149 277 10 63 10 85 -4 153 -28 135 -52 165 -442 555
-321 321 -357 354 -424 387 -75 37 -178 59 -242 50z"/>
</g>
</svg>
