<?xml version="1.0" standalone="no"?>
<!DOCTYPE svg PUBLIC "-//W3C//DTD SVG 20010904//EN"
 "http://www.w3.org/TR/2001/REC-SVG-20010904/DTD/svg10.dtd">
<svg version="1.0" xmlns="http://www.w3.org/2000/svg"
 width="50.000000pt" height="50.000000pt" viewBox="0 0 50.000000 50.000000"
 preserveAspectRatio="xMidYMid meet">

<g transform="translate(0.000000,50.000000) scale(0.100000,-0.100000)"
fill="#000000" stroke="none">
<path d="M155 456 c-60 -28 -87 -56 -114 -116 -25 -54 -27 -117 -6 -167 14
-33 14 -42 0 -91 -9 -30 -14 -56 -12 -59 3 -2 30 2 62 11 49 12 61 13 90 0 50
-21 113 -17 170 10 60 28 87 56 114 116 27 60 26 123 -3 185 -28 60 -56 87
-116 114 -60 27 -123 26 -185 -3z m45 -126 c10 -23 10 -33 0 -45 -14 -17 4
-48 47 -76 25 -17 29 -17 45 -2 15 13 22 14 48 3 34 -14 37 -26 13 -52 -33
-37 -112 -10 -176 61 -42 47 -54 83 -38 117 15 34 46 31 61 -6z"/>
</g>
</svg>
